<svg width="16" height="16" viewBox="0 0 16 16" fill="none" xmlns="http://www.w3.org/2000/svg">
<g opacity="0.4">
<path fill-rule="evenodd" clip-rule="evenodd" d="M12.4 6H12.64C13.7066 6 14.56 6.85333 14.56 7.92V14.0533C14.56 15.12 13.68 15.9733 12.64 15.9733H3.25332C2.18665 15.9733 1.33331 15.0933 1.33331 14.0533V7.92C1.33331 6.85333 2.21332 6 3.25332 6H3.49331V4.72C3.49331 2.26667 5.49331 0.266663 7.94664 0.266663C10.4 0.266663 12.4 2.26667 12.4 4.72V6ZM7.94664 1.09333C5.91998 1.09333 4.29331 2.74666 4.29331 4.74666V6.02666H11.6V4.74666C11.6 2.71999 9.97331 1.09333 7.94664 1.09333ZM6.95997 10.6667C6.95997 10.1333 7.38663 9.67999 7.94663 9.67999C8.50663 9.67999 8.93331 10.1067 8.95997 10.6667C8.95997 11.0933 8.69331 11.4667 8.31997 11.6V13.4667H7.59997V11.6C7.22664 11.44 6.95997 11.0933 6.95997 10.6667Z" fill="white"/>
</g>
</svg>
