<svg width="120" height="22" viewBox="0 0 120 22" fill="none" xmlns="http://www.w3.org/2000/svg">
<path d="M52.1371 14.0608V9.67771C52.1371 8.02382 51.0823 6.9105 49.3845 6.89589C48.901 6.86463 48.418 6.96363 47.9858 7.18258C47.5535 7.40152 47.1879 7.73239 46.9271 8.1407C46.6894 7.74451 46.3492 7.41976 45.9424 7.20069C45.5357 6.98161 45.0773 6.87632 44.6157 6.89589C44.2137 6.87648 43.8137 6.96222 43.455 7.14464C43.0963 7.32707 42.7913 7.59988 42.5703 7.93615V7.05953H41.0479V14.0608H42.5849V10.1832C42.5849 8.96765 43.2569 8.32479 44.2972 8.32479C45.3375 8.32479 45.8196 8.98226 45.8196 10.1686V14.0608H47.3479V10.1832C47.3479 8.96765 48.0492 8.32479 49.0602 8.32479C50.0712 8.32479 50.5972 8.98226 50.5972 10.1686V14.0608H52.1371ZM74.8797 7.06537H72.393V4.94394H70.856V7.06537H69.4359V8.45628H70.856V11.6443C70.856 13.2689 71.4842 14.2362 73.2842 14.2362C73.9565 14.2383 74.6158 14.051 75.1865 13.6956L74.7482 12.3923C74.3397 12.6356 73.8763 12.7713 73.4011 12.7868C72.6414 12.7868 72.3901 12.3193 72.3901 11.618V8.45628H74.8768L74.8797 7.06537ZM87.8625 6.89005C87.4913 6.87923 87.1241 6.9688 86.7995 7.14932C86.475 7.32984 86.2052 7.59462 86.0187 7.9157V7.06537H84.5109V14.0608H86.0333V10.1394C86.0333 8.97057 86.53 8.3394 87.5264 8.3394C87.8524 8.33468 88.1761 8.39426 88.479 8.51473L88.9466 7.07998C88.5986 6.95554 88.232 6.89131 87.8625 6.89005ZM68.2349 7.62057C67.3729 7.10848 66.382 6.85491 65.38 6.89005C63.6092 6.89005 62.4579 7.74037 62.4579 9.12836C62.4579 10.2709 63.3053 10.9722 64.8716 11.1913L65.5875 11.2936C66.4203 11.4105 66.8177 11.6297 66.8177 12.0241C66.8177 12.5647 66.2625 12.8745 65.2222 12.8745C64.383 12.9011 63.5593 12.6437 62.8845 12.1439L62.192 13.3274C63.0786 13.9473 64.1409 14.2658 65.2222 14.2362C67.2414 14.2362 68.4131 13.2836 68.4131 11.954C68.4131 10.7238 67.4897 10.081 65.9703 9.8618L65.2544 9.75953C64.5969 9.67187 64.068 9.54037 64.068 9.07284C64.068 8.56148 64.5647 8.25466 65.4005 8.25466C66.1662 8.26598 66.9164 8.47213 67.5803 8.85369L68.2349 7.62057ZM109.004 6.89005C108.633 6.87923 108.265 6.9688 107.941 7.14932C107.616 7.32984 107.346 7.59462 107.16 7.9157V7.06537H105.652V14.0608H107.174V10.1394C107.174 8.97057 107.671 8.3394 108.668 8.3394C108.994 8.33468 109.317 8.39426 109.62 8.51473L110.088 7.07998C109.74 6.95554 109.373 6.89131 109.004 6.89005ZM89.3995 10.5631C89.3995 12.6845 90.8781 14.2362 93.131 14.2362C94.0445 14.2814 94.942 13.9833 95.6469 13.4004L94.9164 12.1702C94.3901 12.571 93.7486 12.7913 93.0872 12.7985C91.8716 12.7985 90.9803 11.9043 90.9803 10.5602C90.9803 9.21602 91.8745 8.33648 93.0872 8.32187C93.7486 8.32902 94.3901 8.54934 94.9164 8.95011L95.6469 7.71992C94.942 7.13711 94.0445 6.83901 93.131 6.8842C90.8781 6.8842 89.3995 8.43583 89.3995 10.5573V10.5631ZM103.653 10.5631V7.05661H102.131V7.90693C101.871 7.57199 101.535 7.30409 101.151 7.12565C100.767 6.94721 100.345 6.86342 99.9219 6.88128C97.9612 6.88128 96.4154 8.4183 96.4154 10.5543C96.4154 12.6904 97.9524 14.2274 99.9219 14.2274C100.345 14.2453 100.767 14.1615 101.151 13.983C101.535 13.8046 101.871 13.5367 102.131 13.2017V14.0491H103.653V10.5631ZM97.9904 10.5631C97.9904 9.33291 98.794 8.32479 100.112 8.32479C101.371 8.32479 102.219 9.292 102.219 10.5631C102.219 11.8342 101.371 12.8014 100.112 12.8014C98.794 12.8014 97.9904 11.7904 97.9904 10.5631ZM79.6222 6.89005C77.5768 6.89005 76.1391 8.38323 76.1391 10.5631C76.1391 12.7868 77.6323 14.2362 79.7245 14.2362C80.7692 14.2728 81.7907 13.9232 82.594 13.2543L81.8488 12.1264C81.2677 12.5914 80.5476 12.8486 79.8034 12.8569C78.8216 12.8569 77.9303 12.404 77.7112 11.1446H82.9066C82.9212 10.9547 82.9359 10.7647 82.9359 10.5602C82.9359 8.38031 81.5742 6.88713 79.6135 6.88713L79.6222 6.89005ZM79.593 8.25174C80.5748 8.25174 81.2031 8.86537 81.3638 9.94947H77.7375C77.8982 8.93843 78.5118 8.25174 79.5959 8.25174H79.593ZM117.77 10.5631V4.25433H116.248V7.91278C115.988 7.57784 115.652 7.30994 115.268 7.1315C114.883 6.95305 114.462 6.86926 114.038 6.88713C112.078 6.88713 110.532 8.42414 110.532 10.5602C110.532 12.6962 112.069 14.2332 114.038 14.2332C114.462 14.2511 114.883 14.1673 115.268 13.9889C115.652 13.8104 115.988 13.5425 116.248 13.2076V14.055H117.77V10.5631ZM119.55 13.4151C119.61 13.4148 119.669 13.4267 119.725 13.4501C119.778 13.4729 119.827 13.5056 119.868 13.5465C119.909 13.5867 119.942 13.6343 119.964 13.6868C119.988 13.7413 120 13.7999 120 13.8592C120 13.9185 119.988 13.9772 119.964 14.0316C119.942 14.0841 119.909 14.1317 119.868 14.1719C119.827 14.2126 119.778 14.2453 119.725 14.2683C119.669 14.2919 119.61 14.3038 119.55 14.3034C119.46 14.3045 119.373 14.2793 119.298 14.2309C119.223 14.1826 119.164 14.1133 119.129 14.0316C119.105 13.9771 119.093 13.9185 119.093 13.8592C119.093 13.7999 119.105 13.7413 119.129 13.6868C119.174 13.5795 119.26 13.4945 119.368 13.4501C119.428 13.4255 119.491 13.4135 119.555 13.4151H119.55ZM119.55 14.204C119.596 14.2047 119.641 14.1958 119.684 14.1777C119.724 14.1603 119.761 14.1355 119.792 14.1047C119.857 14.0395 119.893 13.9512 119.893 13.8592C119.893 13.7672 119.857 13.6789 119.792 13.6138C119.761 13.5827 119.724 13.5579 119.684 13.5407C119.641 13.5228 119.596 13.5138 119.55 13.5144C119.502 13.5138 119.456 13.5227 119.412 13.5407C119.36 13.563 119.314 13.5976 119.279 13.6416C119.243 13.6857 119.218 13.7377 119.208 13.7933C119.197 13.8489 119.199 13.9063 119.216 13.9606C119.232 14.0149 119.261 14.0643 119.301 14.1047C119.333 14.1359 119.371 14.1607 119.412 14.1777C119.457 14.1966 119.506 14.2055 119.555 14.204H119.55ZM119.576 13.6488C119.62 13.6458 119.663 13.6582 119.699 13.6839C119.713 13.6954 119.724 13.7101 119.732 13.7268C119.74 13.7436 119.743 13.7619 119.742 13.7803C119.743 13.7961 119.74 13.8119 119.734 13.8265C119.728 13.8411 119.719 13.8542 119.707 13.8651C119.681 13.8889 119.647 13.9033 119.611 13.906L119.745 14.0608H119.64L119.514 13.906H119.474V14.0608H119.386V13.6517L119.576 13.6488ZM119.474 13.7248V13.8358H119.576C119.594 13.8411 119.613 13.8411 119.631 13.8358C119.638 13.8313 119.643 13.8252 119.647 13.818C119.65 13.8109 119.652 13.8029 119.652 13.7949C119.652 13.7869 119.65 13.779 119.647 13.7718C119.643 13.7646 119.638 13.7585 119.631 13.754C119.613 13.7487 119.594 13.7487 119.576 13.754L119.474 13.7248ZM112.113 10.5631C112.113 9.33291 112.916 8.32479 114.234 8.32479C115.494 8.32479 116.341 9.292 116.341 10.5631C116.341 11.8342 115.494 12.8014 114.234 12.8014C112.916 12.8014 112.113 11.7904 112.113 10.5631ZM60.7134 10.5631V7.05661H59.191V7.90693C58.9314 7.57484 58.5964 7.30937 58.2138 7.13254C57.8311 6.9557 57.4119 6.87257 56.9907 6.89005C55.03 6.89005 53.4842 8.42706 53.4842 10.5631C53.4842 12.6991 55.0212 14.2362 56.9907 14.2362C57.4141 14.254 57.8356 14.1702 58.2199 13.9918C58.6042 13.8133 58.9402 13.5454 59.1998 13.2105V14.0579H60.7222L60.7134 10.5631ZM55.0505 10.5631C55.0505 9.33291 55.854 8.32479 57.1719 8.32479C58.4313 8.32479 59.2787 9.292 59.2787 10.5631C59.2787 11.8342 58.4313 12.8014 57.1719 12.8014C55.854 12.8014 55.0505 11.7933 55.0505 10.5631Z" fill="white"/>
<path d="M21.6218 2.24686H12.4173V18.7887H21.6218V2.24686Z" fill="#FF5F00"/>
<path d="M13.0017 10.5215C13.0005 8.92864 13.3615 7.35639 14.0576 5.9237C14.7537 4.49102 15.7666 3.23544 17.0196 2.25199C15.4677 1.03238 13.604 0.273977 11.6415 0.0634593C9.67895 -0.147059 7.6968 0.198803 5.92155 1.06152C4.1463 1.92423 2.64957 3.26899 1.60244 4.9421C0.555301 6.61521 0 8.54916 0 10.5229C0 12.4967 0.555301 14.4307 1.60244 16.1038C2.64957 17.7769 4.1463 19.1216 5.92155 19.9844C7.6968 20.8471 9.67895 21.1929 11.6415 20.9824C13.604 20.7719 15.4677 20.0135 17.0196 18.7939C15.7662 17.8101 14.7531 16.5541 14.057 15.1209C13.3609 13.6876 13 12.1148 13.0017 10.5215Z" fill="#EB001B"/>
<path d="M34.0406 10.5222C34.0406 12.4961 33.4852 14.4302 32.4378 16.1033C31.3905 17.7765 29.8936 19.1212 28.1181 19.9838C26.3426 20.8464 24.3603 21.1921 22.3976 20.9812C20.435 20.7704 18.5713 20.0116 17.0195 18.7917C18.272 17.8073 19.2846 16.5514 19.9809 15.1186C20.6771 13.6859 21.0389 12.1137 21.0389 10.5207C21.0389 8.92772 20.6771 7.35553 19.9809 5.92277C19.2846 4.49 18.272 3.23408 17.0195 2.24976C18.5715 1.02962 20.4355 0.270807 22.3984 0.0600969C24.3613 -0.150614 26.3438 0.195277 28.1194 1.05822C29.895 1.92117 31.3919 3.26634 32.439 4.93993C33.4861 6.61353 34.0411 8.548 34.0406 10.5222Z" fill="#F79E1B"/>
<path d="M33.0296 17.0355V16.6965H33.167V16.6293H32.8251V16.6995H32.9624V17.0384L33.0296 17.0355ZM33.7046 17.0355V16.6264H33.614L33.4913 16.9186L33.3686 16.6264H33.2605V17.0355H33.3218V16.7287L33.4358 16.9946H33.5147L33.6286 16.7287V17.0384L33.7046 17.0355Z" fill="#F79E1B"/>
</svg>
