<svg width="24" height="20" viewBox="0 0 24 20" fill="none" xmlns="http://www.w3.org/2000/svg">
<g opacity="0.3">
<path d="M6.87567 4.60001H0V9.11111H6.87567V4.60001Z" fill="white"/>
<path d="M6.87567 11.1333H0V15.6445H6.87567V11.1333Z" fill="white"/>
<path d="M24 4.60001H17.4703V9.11111H24V4.60001Z" fill="white"/>
<path d="M24 11.1333H17.4703V15.6445H24V11.1333Z" fill="white"/>
<path d="M8.48846 6.33742V13.893H15.8398V6.33742L8.48846 6.33742Z" fill="white"/>
<path d="M10.5297 4.08889H8.36756V2.22222H0V0H10.5297V4.08889Z" fill="white"/>
<path d="M15.6324 4.08889H13.4703V0H24V2.22222H15.6324V4.08889Z" fill="white"/>
<path d="M24 20H13.4703V15.9333H15.6324V17.7778H24V20Z" fill="white"/>
<path d="M10.5297 20H0V17.7778H8.36756V15.9333H10.5297V20Z" fill="white"/>
</g>
</svg>
