<svg width="35" height="22" viewBox="0 0 35 22" fill="none" xmlns="http://www.w3.org/2000/svg">
<path d="M21.6218 2.24686H12.4173V18.7887H21.6218V2.24686Z" fill="#FF5F00"/>
<path d="M13.0017 10.5215C13.0005 8.92864 13.3615 7.35639 14.0576 5.9237C14.7537 4.49102 15.7666 3.23544 17.0196 2.25199C15.4677 1.03238 13.604 0.273977 11.6415 0.0634593C9.67895 -0.147059 7.6968 0.198803 5.92155 1.06152C4.1463 1.92423 2.64957 3.26899 1.60244 4.9421C0.555301 6.61521 0 8.54916 0 10.5229C0 12.4967 0.555301 14.4307 1.60244 16.1038C2.64957 17.7769 4.1463 19.1216 5.92155 19.9844C7.6968 20.8471 9.67895 21.1929 11.6415 20.9824C13.604 20.7719 15.4677 20.0135 17.0196 18.7939C15.7662 17.8101 14.7531 16.5541 14.057 15.1209C13.3609 13.6876 13 12.1148 13.0017 10.5215Z" fill="#EB001B"/>
<path d="M34.0407 10.5222C34.0406 12.4961 33.4852 14.4302 32.4379 16.1033C31.3906 17.7765 29.8936 19.1212 28.1181 19.9838C26.3427 20.8464 24.3603 21.1921 22.3977 20.9812C20.435 20.7704 18.5713 20.0116 17.0196 18.7917C18.272 17.8073 19.2846 16.5514 19.9809 15.1186C20.6772 13.6859 21.039 12.1137 21.039 10.5207C21.039 8.92772 20.6772 7.35553 19.9809 5.92277C19.2846 4.49 18.272 3.23408 17.0196 2.24976C18.5715 1.02962 20.4355 0.270807 22.3984 0.0600969C24.3613 -0.150614 26.3439 0.195277 28.1194 1.05822C29.895 1.92117 31.3919 3.26634 32.439 4.93993C33.4861 6.61353 34.0412 8.548 34.0407 10.5222Z" fill="#F79E1B"/>
<path d="M33.0296 17.0355V16.6965H33.167V16.6293H32.8251V16.6995H32.9624V17.0384L33.0296 17.0355ZM33.7046 17.0355V16.6264H33.6141L33.4913 16.9186L33.3686 16.6264H33.2605V17.0355H33.3218V16.7287L33.4358 16.9946H33.5147L33.6287 16.7287V17.0384L33.7046 17.0355Z" fill="#F79E1B"/>
</svg>
