<svg width="119" height="31" viewBox="0 0 119 31" fill="none" xmlns="http://www.w3.org/2000/svg">
<path d="M0.953125 4.51562C0.953125 6.76172 2.78906 8.10938 5.03516 8.10938C7.26172 8.10938 9.09766 6.76172 9.09766 4.51562C9.09766 2.28906 7.26172 0.941406 5.03516 0.941406C2.78906 0.941406 0.953125 2.28906 0.953125 4.51562ZM1.07031 31H8.98047V9.94531H1.07031V31ZM13.3164 31H26.7148C31.5977 31 35.9531 28.3242 35.9531 23.3828C35.9531 18.9297 32.418 17.0938 29.7812 17.0156V16.6445C32.2812 16.332 34.8203 14.4961 34.8203 10.8828C34.8203 6.72266 31.3047 4.33984 26.1875 4.33984H13.3164V31ZM21.4219 9.80859H23.9219C25.8164 9.80859 26.8906 10.8438 26.8906 12.2891C26.8906 13.5781 26.0312 14.8086 23.9609 14.8086H21.4219V9.80859ZM21.4219 19.6523H24.1758C26.5586 19.6523 27.6523 20.8633 27.6523 22.543C27.6523 24.1641 26.6367 25.5312 24.2148 25.5312H21.4219V19.6523ZM44.8789 31L46.0703 25.9609H53.3555L54.5078 31H63.2578L55.25 4.33984H44.8594L36.7734 31H44.8789ZM49.9766 11.1172L52.0469 20.1992H47.418L49.5664 11.1172H49.9766ZM73.0234 31V17.875H73.3359L82.4766 31H88.5703V4.33984H81.0508V17.2305H80.7383L71.6562 4.33984H65.5039V31H73.0234ZM117.965 4.33984H109.41L101.656 14.7891H101.285V4.33984H93.082V31H101.285V23.7148L103.141 21.3711L108.707 31H118.199L109.117 16.0195L117.965 4.33984Z" fill="white"/>
</svg>
